<?xml version="1.0" encoding="UTF-8" standalone="no"?>
<svg
   xmlns:dc="http://purl.org/dc/elements/1.1/"
   xmlns:cc="http://creativecommons.org/ns#"
   xmlns:rdf="http://www.w3.org/1999/02/22-rdf-syntax-ns#"
   xmlns:svg="http://www.w3.org/2000/svg"
   xmlns="http://www.w3.org/2000/svg"
   xmlns:sodipodi="http://sodipodi.sourceforge.net/DTD/sodipodi-0.dtd"
   xmlns:inkscape="http://www.inkscape.org/namespaces/inkscape"
   width="160mm"
   height="90mm"
   viewBox="0 0 16000 9000"
   version="1.1"
   stroke-width="28.222"
   stroke-linejoin="round"
   xml:space="preserve"
   id="svg494"
   sodipodi:docname="deep_times_log.svg"
   inkscape:version="0.92.3 (2405546, 2018-03-11)"><metadata
   id="metadata500"><rdf:RDF><cc:Work
       rdf:about=""><dc:format>image/svg+xml</dc:format><dc:type
         rdf:resource="http://purl.org/dc/dcmitype/StillImage" /></cc:Work></rdf:RDF></metadata><defs
   id="defs498" /><sodipodi:namedview
   pagecolor="#ffffff"
   bordercolor="#666666"
   borderopacity="1"
   objecttolerance="10"
   gridtolerance="10"
   guidetolerance="10"
   inkscape:pageopacity="0"
   inkscape:pageshadow="2"
   inkscape:window-width="1453"
   inkscape:window-height="480"
   id="namedview496"
   showgrid="false"
   inkscape:zoom="0.56554687"
   inkscape:cx="302.3622"
   inkscape:cy="170.07874"
   inkscape:window-x="67"
   inkscape:window-y="27"
   inkscape:window-maximized="0"
   inkscape:current-layer="svg494" />
 
 <path
   fill="none"
   stroke="rgb(179,179,179)"
   stroke-linejoin="round"
   d="M 12646,8192 L 1561,8192"
   id="path4" />
 <path
   fill="none"
   stroke="rgb(179,179,179)"
   stroke-linejoin="round"
   d="M 12646,7215 L 1561,7215"
   id="path6" />
 <path
   fill="none"
   stroke="rgb(179,179,179)"
   stroke-linejoin="round"
   d="M 12646,6238 L 1561,6238"
   id="path8" />
 <path
   fill="none"
   stroke="rgb(179,179,179)"
   stroke-linejoin="round"
   d="M 12646,5261 L 1561,5261"
   id="path10" />
 <path
   fill="none"
   stroke="rgb(179,179,179)"
   stroke-linejoin="round"
   d="M 12646,4285 L 1561,4285"
   id="path12" />
 <path
   fill="none"
   stroke="rgb(179,179,179)"
   stroke-linejoin="round"
   d="M 12646,3308 L 1561,3308"
   id="path14" />
 <path
   fill="none"
   stroke="rgb(179,179,179)"
   stroke-linejoin="round"
   d="M 12646,2331 L 1561,2331"
   id="path16" />
 <path
   fill="none"
   stroke="rgb(179,179,179)"
   stroke-linejoin="round"
   d="M 12646,1354 L 1561,1354"
   id="path18" />
 <path
   fill="none"
   stroke="rgb(179,179,179)"
   stroke-linejoin="round"
   d="M 12646,377 L 1561,377"
   id="path20" />
 <path
   fill="none"
   stroke="rgb(179,179,179)"
   stroke-linejoin="round"
   d="M 1561,8342 L 1561,8192"
   id="path22" />
 <path
   fill="none"
   stroke="rgb(179,179,179)"
   stroke-linejoin="round"
   d="M 1561,8342 L 1561,8192"
   id="path24" />
 <path
   fill="none"
   stroke="rgb(179,179,179)"
   stroke-linejoin="round"
   d="M 3408,8342 L 3408,8192"
   id="path26" />
 <path
   fill="none"
   stroke="rgb(179,179,179)"
   stroke-linejoin="round"
   d="M 3408,8342 L 3408,8192"
   id="path28" />
 <path
   fill="none"
   stroke="rgb(179,179,179)"
   stroke-linejoin="round"
   d="M 5256,8342 L 5256,8192"
   id="path30" />
 <path
   fill="none"
   stroke="rgb(179,179,179)"
   stroke-linejoin="round"
   d="M 5256,8342 L 5256,8192"
   id="path32" />
 <path
   fill="none"
   stroke="rgb(179,179,179)"
   stroke-linejoin="round"
   d="M 7104,8342 L 7104,8192"
   id="path34" />
 <path
   fill="none"
   stroke="rgb(179,179,179)"
   stroke-linejoin="round"
   d="M 7104,8342 L 7104,8192"
   id="path36" />
 <path
   fill="none"
   stroke="rgb(179,179,179)"
   stroke-linejoin="round"
   d="M 8950,8342 L 8950,8192"
   id="path38" />
 <path
   fill="none"
   stroke="rgb(179,179,179)"
   stroke-linejoin="round"
   d="M 8950,8342 L 8950,8192"
   id="path40" />
 <path
   fill="none"
   stroke="rgb(179,179,179)"
   stroke-linejoin="round"
   d="M 10798,8342 L 10798,8192"
   id="path42" />
 <path
   fill="none"
   stroke="rgb(179,179,179)"
   stroke-linejoin="round"
   d="M 10798,8342 L 10798,8192"
   id="path44" />
 <path
   fill="none"
   stroke="rgb(179,179,179)"
   stroke-linejoin="round"
   d="M 12646,8342 L 12646,8192"
   id="path46" />
 <path
   fill="none"
   stroke="rgb(179,179,179)"
   stroke-linejoin="round"
   d="M 12646,8342 L 12646,8192"
   id="path48" />
 <path
   fill="none"
   stroke="rgb(179,179,179)"
   stroke-linejoin="round"
   d="M 1561,8192 L 12646,8192"
   id="path50" />
 <path
   fill="none"
   stroke="rgb(179,179,179)"
   stroke-linejoin="round"
   d="M 1411,8192 L 1561,8192"
   id="path52" />
 <path
   fill="none"
   stroke="rgb(179,179,179)"
   stroke-linejoin="round"
   d="M 1411,8192 L 1561,8192"
   id="path54" />
 <path
   fill="none"
   stroke="rgb(179,179,179)"
   stroke-linejoin="round"
   d="M 1411,7215 L 1561,7215"
   id="path56" />
 <path
   fill="none"
   stroke="rgb(179,179,179)"
   stroke-linejoin="round"
   d="M 1411,7215 L 1561,7215"
   id="path58" />
 <path
   fill="none"
   stroke="rgb(179,179,179)"
   stroke-linejoin="round"
   d="M 1411,6238 L 1561,6238"
   id="path60" />
 <path
   fill="none"
   stroke="rgb(179,179,179)"
   stroke-linejoin="round"
   d="M 1411,6238 L 1561,6238"
   id="path62" />
 <path
   fill="none"
   stroke="rgb(179,179,179)"
   stroke-linejoin="round"
   d="M 1411,5261 L 1561,5261"
   id="path64" />
 <path
   fill="none"
   stroke="rgb(179,179,179)"
   stroke-linejoin="round"
   d="M 1411,5261 L 1561,5261"
   id="path66" />
 <path
   fill="none"
   stroke="rgb(179,179,179)"
   stroke-linejoin="round"
   d="M 1411,4285 L 1561,4285"
   id="path68" />
 <path
   fill="none"
   stroke="rgb(179,179,179)"
   stroke-linejoin="round"
   d="M 1411,4285 L 1561,4285"
   id="path70" />
 <path
   fill="none"
   stroke="rgb(179,179,179)"
   stroke-linejoin="round"
   d="M 1411,3308 L 1561,3308"
   id="path72" />
 <path
   fill="none"
   stroke="rgb(179,179,179)"
   stroke-linejoin="round"
   d="M 1411,3308 L 1561,3308"
   id="path74" />
 <path
   fill="none"
   stroke="rgb(179,179,179)"
   stroke-linejoin="round"
   d="M 1411,2331 L 1561,2331"
   id="path76" />
 <path
   fill="none"
   stroke="rgb(179,179,179)"
   stroke-linejoin="round"
   d="M 1411,2331 L 1561,2331"
   id="path78" />
 <path
   fill="none"
   stroke="rgb(179,179,179)"
   stroke-linejoin="round"
   d="M 1411,1354 L 1561,1354"
   id="path80" />
 <path
   fill="none"
   stroke="rgb(179,179,179)"
   stroke-linejoin="round"
   d="M 1411,1354 L 1561,1354"
   id="path82" />
 <path
   fill="none"
   stroke="rgb(179,179,179)"
   stroke-linejoin="round"
   d="M 1411,377 L 1561,377"
   id="path84" />
 <path
   fill="none"
   stroke="rgb(179,179,179)"
   stroke-linejoin="round"
   d="M 1411,377 L 1561,377"
   id="path86" />
 <path
   fill="none"
   stroke="rgb(179,179,179)"
   stroke-linejoin="round"
   d="M 1561,8192 L 1561,377"
   id="path88" />
 <path
   fill="none"
   stroke="rgb(126,0,33)"
   stroke-width="80"
   stroke-linejoin="round"
   d="M 2484,6989 L 3408,6373 5256,5236 7104,4115 8950,2993 9874,2428 10244,2203 10798,1866 11167,1642"
   id="path90" />
 <path
   fill="rgb(126,0,33)"
   stroke="none"
   d="M 2359,6864 L 2359,7114 2609,6989 2359,6864 Z"
   id="path92" />
 <path
   fill="none"
   stroke="rgb(126,0,33)"
   stroke-linejoin="round"
   d="M 2359,6864 L 2359,7114 2609,6989 2359,6864 Z"
   id="path94" />
 <path
   fill="rgb(126,0,33)"
   stroke="none"
   d="M 3283,6248 L 3283,6498 3533,6373 3283,6248 Z"
   id="path96" />
 <path
   fill="none"
   stroke="rgb(126,0,33)"
   stroke-linejoin="round"
   d="M 3283,6248 L 3283,6498 3533,6373 3283,6248 Z"
   id="path98" />
 <path
   fill="rgb(126,0,33)"
   stroke="none"
   d="M 5131,5111 L 5131,5361 5381,5236 5131,5111 Z"
   id="path100" />
 <path
   fill="none"
   stroke="rgb(126,0,33)"
   stroke-linejoin="round"
   d="M 5131,5111 L 5131,5361 5381,5236 5131,5111 Z"
   id="path102" />
 <path
   fill="rgb(126,0,33)"
   stroke="none"
   d="M 6979,3990 L 6979,4240 7229,4115 6979,3990 Z"
   id="path104" />
 <path
   fill="none"
   stroke="rgb(126,0,33)"
   stroke-linejoin="round"
   d="M 6979,3990 L 6979,4240 7229,4115 6979,3990 Z"
   id="path106" />
 <path
   fill="rgb(126,0,33)"
   stroke="none"
   d="M 8825,2868 L 8825,3118 9075,2993 8825,2868 Z"
   id="path108" />
 <path
   fill="none"
   stroke="rgb(126,0,33)"
   stroke-linejoin="round"
   d="M 8825,2868 L 8825,3118 9075,2993 8825,2868 Z"
   id="path110" />
 <path
   fill="rgb(126,0,33)"
   stroke="none"
   d="M 9749,2303 L 9749,2553 9999,2428 9749,2303 Z"
   id="path112" />
 <path
   fill="none"
   stroke="rgb(126,0,33)"
   stroke-linejoin="round"
   d="M 9749,2303 L 9749,2553 9999,2428 9749,2303 Z"
   id="path114" />
 <path
   fill="rgb(126,0,33)"
   stroke="none"
   d="M 10119,2078 L 10119,2328 10369,2203 10119,2078 Z"
   id="path116" />
 <path
   fill="none"
   stroke="rgb(126,0,33)"
   stroke-linejoin="round"
   d="M 10119,2078 L 10119,2328 10369,2203 10119,2078 Z"
   id="path118" />
 <path
   fill="rgb(126,0,33)"
   stroke="none"
   d="M 10673,1741 L 10673,1991 10923,1866 10673,1741 Z"
   id="path120" />
 <path
   fill="none"
   stroke="rgb(126,0,33)"
   stroke-linejoin="round"
   d="M 10673,1741 L 10673,1991 10923,1866 10673,1741 Z"
   id="path122" />
 <path
   fill="rgb(126,0,33)"
   stroke="none"
   d="M 11042,1517 L 11042,1767 11292,1642 11042,1517 Z"
   id="path124" />
 <path
   fill="none"
   stroke="rgb(126,0,33)"
   stroke-linejoin="round"
   d="M 11042,1517 L 11042,1767 11292,1642 11042,1517 Z"
   id="path126" />
 <path
   fill="none"
   stroke="rgb(87,157,28)"
   stroke-width="80"
   stroke-linejoin="round"
   d="M 2484,7042 L 3408,6374 5256,5166 7104,3974 8950,2778 9874,2188 10244,1954 10798,1601"
   id="path128" />
 <path
   fill="rgb(87,157,28)"
   stroke="none"
   d="M 2359,7167 L 2609,7167 2484,6917 2359,7167 Z"
   id="path130" />
 <path
   fill="none"
   stroke="rgb(87,157,28)"
   stroke-linejoin="round"
   d="M 2359,7167 L 2609,7167 2484,6917 2359,7167 Z"
   id="path132" />
 <path
   fill="rgb(87,157,28)"
   stroke="none"
   d="M 3283,6499 L 3533,6499 3408,6249 3283,6499 Z"
   id="path134" />
 <path
   fill="none"
   stroke="rgb(87,157,28)"
   stroke-linejoin="round"
   d="M 3283,6499 L 3533,6499 3408,6249 3283,6499 Z"
   id="path136" />
 <path
   fill="rgb(87,157,28)"
   stroke="none"
   d="M 5131,5291 L 5381,5291 5256,5041 5131,5291 Z"
   id="path138" />
 <path
   fill="none"
   stroke="rgb(87,157,28)"
   stroke-linejoin="round"
   d="M 5131,5291 L 5381,5291 5256,5041 5131,5291 Z"
   id="path140" />
 <path
   fill="rgb(87,157,28)"
   stroke="none"
   d="M 6979,4099 L 7229,4099 7104,3849 6979,4099 Z"
   id="path142" />
 <path
   fill="none"
   stroke="rgb(87,157,28)"
   stroke-linejoin="round"
   d="M 6979,4099 L 7229,4099 7104,3849 6979,4099 Z"
   id="path144" />
 <path
   fill="rgb(87,157,28)"
   stroke="none"
   d="M 8825,2903 L 9075,2903 8950,2653 8825,2903 Z"
   id="path146" />
 <path
   fill="none"
   stroke="rgb(87,157,28)"
   stroke-linejoin="round"
   d="M 8825,2903 L 9075,2903 8950,2653 8825,2903 Z"
   id="path148" />
 <path
   fill="rgb(87,157,28)"
   stroke="none"
   d="M 9749,2313 L 9999,2313 9874,2063 9749,2313 Z"
   id="path150" />
 <path
   fill="none"
   stroke="rgb(87,157,28)"
   stroke-linejoin="round"
   d="M 9749,2313 L 9999,2313 9874,2063 9749,2313 Z"
   id="path152" />
 <path
   fill="rgb(87,157,28)"
   stroke="none"
   d="M 10119,2079 L 10369,2079 10244,1829 10119,2079 Z"
   id="path154" />
 <path
   fill="none"
   stroke="rgb(87,157,28)"
   stroke-linejoin="round"
   d="M 10119,2079 L 10369,2079 10244,1829 10119,2079 Z"
   id="path156" />
 <path
   fill="rgb(87,157,28)"
   stroke="none"
   d="M 10673,1726 L 10923,1726 10798,1476 10673,1726 Z"
   id="path158" />
 <path
   fill="none"
   stroke="rgb(87,157,28)"
   stroke-linejoin="round"
   d="M 10673,1726 L 10923,1726 10798,1476 10673,1726 Z"
   id="path160" />
 <path
   fill="none"
   stroke="rgb(255,211,32)"
   stroke-width="80"
   stroke-linejoin="round"
   d="M 2484,7252 L 3408,6747 5256,5671 7104,4513 8950,3382 9874,2817 10244,2593 10798,2253 11167,2030 11722,1696"
   id="path162" />
 <path
   fill="rgb(255,211,32)"
   stroke="none"
   d="M 2359,7127 L 2484,7377 2609,7127 2359,7127 Z"
   id="path164" />
 <path
   fill="none"
   stroke="rgb(255,211,32)"
   stroke-linejoin="round"
   d="M 2359,7127 L 2484,7377 2609,7127 2359,7127 Z"
   id="path166" />
 <path
   fill="rgb(255,211,32)"
   stroke="none"
   d="M 3283,6622 L 3408,6872 3533,6622 3283,6622 Z"
   id="path168" />
 <path
   fill="none"
   stroke="rgb(255,211,32)"
   stroke-linejoin="round"
   d="M 3283,6622 L 3408,6872 3533,6622 3283,6622 Z"
   id="path170" />
 <path
   fill="rgb(255,211,32)"
   stroke="none"
   d="M 5131,5546 L 5256,5796 5381,5546 5131,5546 Z"
   id="path172" />
 <path
   fill="none"
   stroke="rgb(255,211,32)"
   stroke-linejoin="round"
   d="M 5131,5546 L 5256,5796 5381,5546 5131,5546 Z"
   id="path174" />
 <path
   fill="rgb(255,211,32)"
   stroke="none"
   d="M 6979,4389 L 7104,4638 7229,4389 6979,4389 Z"
   id="path176" />
 <path
   fill="none"
   stroke="rgb(255,211,32)"
   stroke-linejoin="round"
   d="M 6979,4389 L 7104,4638 7229,4389 6979,4389 Z"
   id="path178" />
 <path
   fill="rgb(255,211,32)"
   stroke="none"
   d="M 8825,3257 L 8950,3507 9075,3257 8825,3257 Z"
   id="path180" />
 <path
   fill="none"
   stroke="rgb(255,211,32)"
   stroke-linejoin="round"
   d="M 8825,3257 L 8950,3507 9075,3257 8825,3257 Z"
   id="path182" />
 <path
   fill="rgb(255,211,32)"
   stroke="none"
   d="M 9749,2692 L 9874,2942 9999,2692 9749,2692 Z"
   id="path184" />
 <path
   fill="none"
   stroke="rgb(255,211,32)"
   stroke-linejoin="round"
   d="M 9749,2692 L 9874,2942 9999,2692 9749,2692 Z"
   id="path186" />
 <path
   fill="rgb(255,211,32)"
   stroke="none"
   d="M 10119,2468 L 10244,2718 10369,2468 10119,2468 Z"
   id="path188" />
 <path
   fill="none"
   stroke="rgb(255,211,32)"
   stroke-linejoin="round"
   d="M 10119,2468 L 10244,2718 10369,2468 10119,2468 Z"
   id="path190" />
 <path
   fill="rgb(255,211,32)"
   stroke="none"
   d="M 10673,2128 L 10798,2378 10923,2128 10673,2128 Z"
   id="path192" />
 <path
   fill="none"
   stroke="rgb(255,211,32)"
   stroke-linejoin="round"
   d="M 10673,2128 L 10798,2378 10923,2128 10673,2128 Z"
   id="path194" />
 <path
   fill="rgb(255,211,32)"
   stroke="none"
   d="M 11042,1905 L 11167,2155 11292,1905 11042,1905 Z"
   id="path196" />
 <path
   fill="none"
   stroke="rgb(255,211,32)"
   stroke-linejoin="round"
   d="M 11042,1905 L 11167,2155 11292,1905 11042,1905 Z"
   id="path198" />
 <path
   fill="rgb(255,211,32)"
   stroke="none"
   d="M 11597,1571 L 11722,1821 11847,1571 11597,1571 Z"
   id="path200" />
 <path
   fill="none"
   stroke="rgb(255,211,32)"
   stroke-linejoin="round"
   d="M 11597,1571 L 11722,1821 11847,1571 11597,1571 Z"
   id="path202" />
 <path
   fill="none"
   stroke="rgb(255,66,14)"
   stroke-width="80"
   stroke-linejoin="round"
   d="M 2484,7566 L 3408,7066 5256,5959 7104,4839 8950,3706 9874,3138 10244,2915 10798,2562 11167,2364 11722,1992"
   id="path204" />
 <path
   fill="rgb(255,66,14)"
   stroke="none"
   d="M 2359,7566 L 2484,7691 2609,7566 2484,7441 2359,7566 Z"
   id="path206" />
 <path
   fill="none"
   stroke="rgb(255,66,14)"
   stroke-linejoin="round"
   d="M 2359,7566 L 2484,7691 2609,7566 2484,7441 2359,7566 Z"
   id="path208" />
 <path
   fill="rgb(255,66,14)"
   stroke="none"
   d="M 3283,7066 L 3408,7191 3533,7066 3408,6941 3283,7066 Z"
   id="path210" />
 <path
   fill="none"
   stroke="rgb(255,66,14)"
   stroke-linejoin="round"
   d="M 3283,7066 L 3408,7191 3533,7066 3408,6941 3283,7066 Z"
   id="path212" />
 <path
   fill="rgb(255,66,14)"
   stroke="none"
   d="M 5131,5959 L 5256,6084 5381,5959 5256,5834 5131,5959 Z"
   id="path214" />
 <path
   fill="none"
   stroke="rgb(255,66,14)"
   stroke-linejoin="round"
   d="M 5131,5959 L 5256,6084 5381,5959 5256,5834 5131,5959 Z"
   id="path216" />
 <path
   fill="rgb(255,66,14)"
   stroke="none"
   d="M 6979,4839 L 7104,4964 7229,4839 7104,4714 6979,4839 Z"
   id="path218" />
 <path
   fill="none"
   stroke="rgb(255,66,14)"
   stroke-linejoin="round"
   d="M 6979,4839 L 7104,4964 7229,4839 7104,4714 6979,4839 Z"
   id="path220" />
 <path
   fill="rgb(255,66,14)"
   stroke="none"
   d="M 8825,3706 L 8950,3831 9075,3706 8950,3581 8825,3706 Z"
   id="path222" />
 <path
   fill="none"
   stroke="rgb(255,66,14)"
   stroke-linejoin="round"
   d="M 8825,3706 L 8950,3831 9075,3706 8950,3581 8825,3706 Z"
   id="path224" />
 <path
   fill="rgb(255,66,14)"
   stroke="none"
   d="M 9749,3138 L 9874,3263 9999,3138 9874,3013 9749,3138 Z"
   id="path226" />
 <path
   fill="none"
   stroke="rgb(255,66,14)"
   stroke-linejoin="round"
   d="M 9749,3138 L 9874,3263 9999,3138 9874,3013 9749,3138 Z"
   id="path228" />
 <path
   fill="rgb(255,66,14)"
   stroke="none"
   d="M 10119,2915 L 10244,3040 10369,2915 10244,2790 10119,2915 Z"
   id="path230" />
 <path
   fill="none"
   stroke="rgb(255,66,14)"
   stroke-linejoin="round"
   d="M 10119,2915 L 10244,3040 10369,2915 10244,2790 10119,2915 Z"
   id="path232" />
 <path
   fill="rgb(255,66,14)"
   stroke="none"
   d="M 10673,2562 L 10798,2687 10923,2562 10798,2437 10673,2562 Z"
   id="path234" />
 <path
   fill="none"
   stroke="rgb(255,66,14)"
   stroke-linejoin="round"
   d="M 10673,2562 L 10798,2687 10923,2562 10798,2437 10673,2562 Z"
   id="path236" />
 <path
   fill="rgb(255,66,14)"
   stroke="none"
   d="M 11042,2364 L 11167,2489 11292,2364 11167,2239 11042,2364 Z"
   id="path238" />
 <path
   fill="none"
   stroke="rgb(255,66,14)"
   stroke-linejoin="round"
   d="M 11042,2364 L 11167,2489 11292,2364 11167,2239 11042,2364 Z"
   id="path240" />
 <path
   fill="rgb(255,66,14)"
   stroke="none"
   d="M 11597,1992 L 11722,2117 11847,1992 11722,1867 11597,1992 Z"
   id="path242" />
 <path
   fill="none"
   stroke="rgb(255,66,14)"
   stroke-linejoin="round"
   d="M 11597,1992 L 11722,2117 11847,1992 11722,1867 11597,1992 Z"
   id="path244" />
 <path
   fill="none"
   stroke="rgb(0,69,134)"
   stroke-width="80"
   stroke-linejoin="round"
   d="M 2484,6472 L 3408,5905 5256,4749 7104,3618 8950,2472 9874,1903 10244,1687 10798,1341"
   id="path246" />
 <path
   fill="rgb(0,69,134)"
   stroke="none"
   d="M 2359,6347 L 2359,6597 2609,6597 2609,6347 2359,6347 Z"
   id="path248" />
 <path
   fill="none"
   stroke="rgb(0,69,134)"
   stroke-linejoin="round"
   d="M 2359,6347 L 2359,6597 2609,6597 2609,6347 2359,6347 Z"
   id="path250" />
 <path
   fill="rgb(0,69,134)"
   stroke="none"
   d="M 3283,5780 L 3283,6030 3533,6030 3533,5780 3283,5780 Z"
   id="path252" />
 <path
   fill="none"
   stroke="rgb(0,69,134)"
   stroke-linejoin="round"
   d="M 3283,5780 L 3283,6030 3533,6030 3533,5780 3283,5780 Z"
   id="path254" />
 <path
   fill="rgb(0,69,134)"
   stroke="none"
   d="M 5131,4624 L 5131,4874 5381,4874 5381,4624 5131,4624 Z"
   id="path256" />
 <path
   fill="none"
   stroke="rgb(0,69,134)"
   stroke-linejoin="round"
   d="M 5131,4624 L 5131,4874 5381,4874 5381,4624 5131,4624 Z"
   id="path258" />
 <path
   fill="rgb(0,69,134)"
   stroke="none"
   d="M 6979,3493 L 6979,3743 7229,3743 7229,3493 6979,3493 Z"
   id="path260" />
 <path
   fill="none"
   stroke="rgb(0,69,134)"
   stroke-linejoin="round"
   d="M 6979,3493 L 6979,3743 7229,3743 7229,3493 6979,3493 Z"
   id="path262" />
 <path
   fill="rgb(0,69,134)"
   stroke="none"
   d="M 8825,2347 L 8825,2597 9075,2597 9075,2347 8825,2347 Z"
   id="path264" />
 <path
   fill="none"
   stroke="rgb(0,69,134)"
   stroke-linejoin="round"
   d="M 8825,2347 L 8825,2597 9075,2597 9075,2347 8825,2347 Z"
   id="path266" />
 <path
   fill="rgb(0,69,134)"
   stroke="none"
   d="M 9749,1778 L 9749,2028 9999,2028 9999,1778 9749,1778 Z"
   id="path268" />
 <path
   fill="none"
   stroke="rgb(0,69,134)"
   stroke-linejoin="round"
   d="M 9749,1778 L 9749,2028 9999,2028 9999,1778 9749,1778 Z"
   id="path270" />
 <path
   fill="rgb(0,69,134)"
   stroke="none"
   d="M 10119,1562 L 10119,1812 10369,1812 10369,1562 10119,1562 Z"
   id="path272" />
 <path
   fill="none"
   stroke="rgb(0,69,134)"
   stroke-linejoin="round"
   d="M 10119,1562 L 10119,1812 10369,1812 10369,1562 10119,1562 Z"
   id="path274" />
 <path
   fill="rgb(0,69,134)"
   stroke="none"
   d="M 10673,1216 L 10673,1466 10923,1466 10923,1216 10673,1216 Z"
   id="path276" />
 <path
   fill="none"
   stroke="rgb(0,69,134)"
   stroke-linejoin="round"
   d="M 10673,1216 L 10673,1466 10923,1466 10923,1216 10673,1216 Z"
   id="path278" />
 <text
   class="TextShape"
   id="text286"><tspan
     class="TextParagraph"
     font-family="Liberation Sans, sans-serif"
     font-size="353px"
     font-weight="400"
     id="tspan284"><tspan
       class="TextPosition"
       x="1376"
       y="8760"
       id="tspan282"><tspan
         fill="rgb(0,0,0)"
         stroke="none"
         id="tspan280">10</tspan></tspan></tspan></text>

 <text
   class="TextShape"
   id="text294"><tspan
     class="TextParagraph"
     font-family="Liberation Sans, sans-serif"
     font-size="353px"
     font-weight="400"
     id="tspan292"><tspan
       class="TextPosition"
       x="3223"
       y="8760"
       id="tspan290"><tspan
         fill="rgb(0,0,0)"
         stroke="none"
         id="tspan288">20</tspan></tspan></tspan></text>

 <text
   class="TextShape"
   id="text302"><tspan
     class="TextParagraph"
     font-family="Liberation Sans, sans-serif"
     font-size="353px"
     font-weight="400"
     id="tspan300"><tspan
       class="TextPosition"
       x="5071"
       y="8760"
       id="tspan298"><tspan
         fill="rgb(0,0,0)"
         stroke="none"
         id="tspan296">30</tspan></tspan></tspan></text>

 <text
   class="TextShape"
   id="text310"><tspan
     class="TextParagraph"
     font-family="Liberation Sans, sans-serif"
     font-size="353px"
     font-weight="400"
     id="tspan308"><tspan
       class="TextPosition"
       x="6919"
       y="8760"
       id="tspan306"><tspan
         fill="rgb(0,0,0)"
         stroke="none"
         id="tspan304">40</tspan></tspan></tspan></text>

 <text
   class="TextShape"
   id="text318"><tspan
     class="TextParagraph"
     font-family="Liberation Sans, sans-serif"
     font-size="353px"
     font-weight="400"
     id="tspan316"><tspan
       class="TextPosition"
       x="8766"
       y="8760"
       id="tspan314"><tspan
         fill="rgb(0,0,0)"
         stroke="none"
         id="tspan312">50</tspan></tspan></tspan></text>

 <text
   class="TextShape"
   id="text326"><tspan
     class="TextParagraph"
     font-family="Liberation Sans, sans-serif"
     font-size="353px"
     font-weight="400"
     id="tspan324"><tspan
       class="TextPosition"
       x="10614"
       y="8760"
       id="tspan322"><tspan
         fill="rgb(0,0,0)"
         stroke="none"
         id="tspan320">60</tspan></tspan></tspan></text>

 <text
   class="TextShape"
   id="text334"><tspan
     class="TextParagraph"
     font-family="Liberation Sans, sans-serif"
     font-size="353px"
     font-weight="400"
     id="tspan332"><tspan
       class="TextPosition"
       x="12462"
       y="8760"
       id="tspan330"><tspan
         fill="rgb(0,0,0)"
         stroke="none"
         id="tspan328">70</tspan></tspan></tspan></text>

 <text
   class="TextShape"
   id="text342"><tspan
     class="TextParagraph"
     font-family="Liberation Sans, sans-serif"
     font-size="353px"
     font-weight="400"
     id="tspan340"><tspan
       class="TextPosition"
       x="464"
       y="8313"
       id="tspan338"><tspan
         fill="rgb(0,0,0)"
         stroke="none"
         id="tspan336">0.001</tspan></tspan></tspan></text>

 <text
   class="TextShape"
   id="text350"><tspan
     class="TextParagraph"
     font-family="Liberation Sans, sans-serif"
     font-size="353px"
     font-weight="400"
     id="tspan348"><tspan
       class="TextPosition"
       x="650"
       y="7336"
       id="tspan346"><tspan
         fill="rgb(0,0,0)"
         stroke="none"
         id="tspan344">0.01</tspan></tspan></tspan></text>

 <text
   class="TextShape"
   id="text358"><tspan
     class="TextParagraph"
     font-family="Liberation Sans, sans-serif"
     font-size="353px"
     font-weight="400"
     id="tspan356"><tspan
       class="TextPosition"
       x="835"
       y="6359"
       id="tspan354"><tspan
         fill="rgb(0,0,0)"
         stroke="none"
         id="tspan352">0.1</tspan></tspan></tspan></text>

 <text
   class="TextShape"
   id="text366"><tspan
     class="TextParagraph"
     font-family="Liberation Sans, sans-serif"
     font-size="353px"
     font-weight="400"
     id="tspan364"><tspan
       class="TextPosition"
       x="1126"
       y="5382"
       id="tspan362"><tspan
         fill="rgb(0,0,0)"
         stroke="none"
         id="tspan360">1</tspan></tspan></tspan></text>

 <text
   class="TextShape"
   id="text374"><tspan
     class="TextParagraph"
     font-family="Liberation Sans, sans-serif"
     font-size="353px"
     font-weight="400"
     id="tspan372"><tspan
       class="TextPosition"
       x="941"
       y="4405"
       id="tspan370"><tspan
         fill="rgb(0,0,0)"
         stroke="none"
         id="tspan368">10</tspan></tspan></tspan></text>

 <text
   class="TextShape"
   id="text382"><tspan
     class="TextParagraph"
     font-family="Liberation Sans, sans-serif"
     font-size="353px"
     font-weight="400"
     id="tspan380"><tspan
       class="TextPosition"
       x="755"
       y="3428"
       id="tspan378"><tspan
         fill="rgb(0,0,0)"
         stroke="none"
         id="tspan376">100</tspan></tspan></tspan></text>

 <text
   class="TextShape"
   id="text390"><tspan
     class="TextParagraph"
     font-family="Liberation Sans, sans-serif"
     font-size="353px"
     font-weight="400"
     id="tspan388"><tspan
       class="TextPosition"
       x="570"
       y="2451"
       id="tspan386"><tspan
         fill="rgb(0,0,0)"
         stroke="none"
         id="tspan384">1000</tspan></tspan></tspan></text>

 <text
   class="TextShape"
   id="text398"><tspan
     class="TextParagraph"
     font-family="Liberation Sans, sans-serif"
     font-size="353px"
     font-weight="400"
     id="tspan396"><tspan
       class="TextPosition"
       x="385"
       y="1474"
       id="tspan394"><tspan
         fill="rgb(0,0,0)"
         stroke="none"
         id="tspan392">10000</tspan></tspan></tspan></text>

 <text
   class="TextShape"
   id="text406"><tspan
     class="TextParagraph"
     font-family="Liberation Sans, sans-serif"
     font-size="353px"
     font-weight="400"
     id="tspan404"><tspan
       class="TextPosition"
       x="200"
       y="497"
       id="tspan402"><tspan
         fill="rgb(0,0,0)"
         stroke="none"
         id="tspan400">100000</tspan></tspan></tspan></text>

 <path
   fill="none"
   stroke="rgb(0,69,134)"
   stroke-width="80"
   stroke-linejoin="round"
   d="M 13132,3503 L 13932,3503"
   id="path408" />
 <path
   fill="rgb(0,69,134)"
   stroke="none"
   d="M 13426,3398 L 13426,3609 13637,3609 13637,3398 13426,3398 Z"
   id="path410" />
 <path
   fill="none"
   stroke="rgb(0,69,134)"
   stroke-linejoin="round"
   d="M 13426,3398 L 13426,3609 13637,3609 13637,3398 13426,3398 Z"
   id="path412" />
 <path
   fill="none"
   stroke="rgb(255,66,14)"
   stroke-width="80"
   stroke-linejoin="round"
   d="M 13132,4001 L 13932,4001"
   id="path414" />
 <path
   fill="rgb(255,66,14)"
   stroke="none"
   d="M 13426,4001 L 13532,4107 13637,4001 13532,3896 13426,4001 Z"
   id="path416" />
 <path
   fill="none"
   stroke="rgb(255,66,14)"
   stroke-linejoin="round"
   d="M 13426,4001 L 13532,4107 13637,4001 13532,3896 13426,4001 Z"
   id="path418" />
 <path
   fill="none"
   stroke="rgb(255,211,32)"
   stroke-width="80"
   stroke-linejoin="round"
   d="M 13132,4499 L 13932,4499"
   id="path420" />
 <path
   fill="rgb(255,211,32)"
   stroke="none"
   d="M 13426,4394 L 13532,4604 13637,4394 13426,4394 Z"
   id="path422" />
 <path
   fill="none"
   stroke="rgb(255,211,32)"
   stroke-linejoin="round"
   d="M 13426,4394 L 13532,4604 13637,4394 13426,4394 Z"
   id="path424" />
 <path
   fill="none"
   stroke="rgb(87,157,28)"
   stroke-width="80"
   stroke-linejoin="round"
   d="M 13132,4996 L 13932,4996"
   id="path426" />
 <path
   fill="rgb(87,157,28)"
   stroke="none"
   d="M 13426,5102 L 13637,5102 13532,4891 13426,5102 Z"
   id="path428" />
 <path
   fill="none"
   stroke="rgb(87,157,28)"
   stroke-linejoin="round"
   d="M 13426,5102 L 13637,5102 13532,4891 13426,5102 Z"
   id="path430" />
 <path
   fill="none"
   stroke="rgb(126,0,33)"
   stroke-width="80"
   stroke-linejoin="round"
   d="M 13132,5494 L 13932,5494"
   id="path432" />
 <path
   fill="rgb(126,0,33)"
   stroke="none"
   d="M 13426,5389 L 13426,5600 13637,5494 13426,5389 Z"
   id="path434" />
 <path
   fill="none"
   stroke="rgb(126,0,33)"
   stroke-linejoin="round"
   d="M 13426,5389 L 13426,5600 13637,5494 13426,5389 Z"
   id="path436" />
 <text
   class="TextShape"
   id="text444"><tspan
     class="TextParagraph"
     font-family="Liberation Sans, sans-serif"
     font-size="353px"
     font-weight="400"
     id="tspan442"><tspan
       class="TextPosition"
       x="14032"
       y="3623"
       id="tspan440"><tspan
         fill="rgb(0,0,0)"
         stroke="none"
         id="tspan438">Brute-force</tspan></tspan></tspan></text>

 <text
   class="TextShape"
   id="text452"><tspan
     class="TextParagraph"
     font-family="Liberation Sans, sans-serif"
     font-size="353px"
     font-weight="400"
     id="tspan450"><tspan
       class="TextPosition"
       x="14032"
       y="4121"
       id="tspan448"><tspan
         fill="rgb(0,0,0)"
         stroke="none"
         id="tspan446">Lists</tspan></tspan></tspan></text>

 <text
   class="TextShape"
   id="text460"><tspan
     class="TextParagraph"
     font-family="Liberation Sans, sans-serif"
     font-size="353px"
     font-weight="400"
     id="tspan458"><tspan
       class="TextPosition"
       x="14032"
       y="4618"
       id="tspan456"><tspan
         fill="rgb(0,0,0)"
         stroke="none"
         id="tspan454">Linked List</tspan></tspan></tspan></text>

 <text
   class="TextShape"
   id="text468"><tspan
     class="TextParagraph"
     font-family="Liberation Sans, sans-serif"
     font-size="353px"
     font-weight="400"
     id="tspan466"><tspan
       class="TextPosition"
       x="14032"
       y="5116"
       id="tspan464"><tspan
         fill="rgb(0,0,0)"
         stroke="none"
         id="tspan462">Recursive</tspan></tspan></tspan></text>

 <text
   class="TextShape"
   id="text476"><tspan
     class="TextParagraph"
     font-family="Liberation Sans, sans-serif"
     font-size="353px"
     font-weight="400"
     id="tspan474"><tspan
       class="TextPosition"
       x="14032"
       y="5614"
       id="tspan472"><tspan
         fill="rgb(0,0,0)"
         stroke="none"
         id="tspan470">Stack</tspan></tspan></tspan></text>

 <text
   class="TextShape"
   id="text484"><tspan
     class="TextParagraph"
     font-family="Liberation Sans, sans-serif"
     font-size="318px"
     font-weight="400"
     id="tspan482"><tspan
       class="TextPosition"
       x="13212"
       y="8694"
       id="tspan480"><tspan
         fill="rgb(0,0,0)"
         stroke="none"
         id="tspan478">Iterations</tspan></tspan></tspan></text>

 <text
   class="TextShape"
   transform="translate(440,6283) rotate(-90) translate(-440,-6283)"
   id="text492"><tspan
     class="TextParagraph"
     font-family="Liberation Sans, sans-serif"
     font-size="318px"
     font-weight="400"
     id="tspan490"><tspan
       class="TextPosition"
       x="440"
       y="6283"
       id="tspan488"><tspan
         fill="rgb(0,0,0)"
         stroke="none"
         id="tspan486">Run Time (ms, log scale)</tspan></tspan></tspan></text>

</svg>