<?xml version="1.0" encoding="UTF-8" standalone="no"?>
<svg
   xmlns:dc="http://purl.org/dc/elements/1.1/"
   xmlns:cc="http://creativecommons.org/ns#"
   xmlns:rdf="http://www.w3.org/1999/02/22-rdf-syntax-ns#"
   xmlns:svg="http://www.w3.org/2000/svg"
   xmlns="http://www.w3.org/2000/svg"
   xmlns:sodipodi="http://sodipodi.sourceforge.net/DTD/sodipodi-0.dtd"
   xmlns:inkscape="http://www.inkscape.org/namespaces/inkscape"
   width="160mm"
   height="90mm"
   viewBox="0 0 16000 9000"
   version="1.1"
   stroke-width="28.222"
   stroke-linejoin="round"
   xml:space="preserve"
   id="svg466"
   sodipodi:docname="deep_times.svg"
   inkscape:version="0.92.3 (2405546, 2018-03-11)"><metadata
   id="metadata472"><rdf:RDF><cc:Work
       rdf:about=""><dc:format>image/svg+xml</dc:format><dc:type
         rdf:resource="http://purl.org/dc/dcmitype/StillImage" /></cc:Work></rdf:RDF></metadata><defs
   id="defs470" /><sodipodi:namedview
   pagecolor="#ffffff"
   bordercolor="#666666"
   borderopacity="1"
   objecttolerance="10"
   gridtolerance="10"
   guidetolerance="10"
   inkscape:pageopacity="0"
   inkscape:pageshadow="2"
   inkscape:window-width="1853"
   inkscape:window-height="1025"
   id="namedview468"
   showgrid="false"
   inkscape:zoom="1.1310937"
   inkscape:cx="436.15846"
   inkscape:cy="177.4748"
   inkscape:window-x="67"
   inkscape:window-y="27"
   inkscape:window-maximized="1"
   inkscape:current-layer="svg466" />
 
 <path
   fill="none"
   stroke="rgb(179,179,179)"
   stroke-linejoin="round"
   d="M 12450,8139 L 1769,8139"
   id="path4" />
 <path
   fill="none"
   stroke="rgb(179,179,179)"
   stroke-linejoin="round"
   d="M 12450,6840 L 1769,6840"
   id="path6" />
 <path
   fill="none"
   stroke="rgb(179,179,179)"
   stroke-linejoin="round"
   d="M 12450,5542 L 1769,5542"
   id="path8" />
 <path
   fill="none"
   stroke="rgb(179,179,179)"
   stroke-linejoin="round"
   d="M 12450,4244 L 1769,4244"
   id="path10" />
 <path
   fill="none"
   stroke="rgb(179,179,179)"
   stroke-linejoin="round"
   d="M 12450,2946 L 1769,2946"
   id="path12" />
 <path
   fill="none"
   stroke="rgb(179,179,179)"
   stroke-linejoin="round"
   d="M 12450,1647 L 1769,1647"
   id="path14" />
 <path
   fill="none"
   stroke="rgb(179,179,179)"
   stroke-linejoin="round"
   d="M 12450,349 L 1769,349"
   id="path16" />
 <path
   fill="none"
   stroke="rgb(179,179,179)"
   stroke-linejoin="round"
   d="M 1769,8289 L 1769,8139"
   id="path18" />
 <path
   fill="none"
   stroke="rgb(179,179,179)"
   stroke-linejoin="round"
   d="M 1769,8289 L 1769,8139"
   id="path20" />
 <path
   fill="none"
   stroke="rgb(179,179,179)"
   stroke-linejoin="round"
   d="M 3549,8289 L 3549,8139"
   id="path22" />
 <path
   fill="none"
   stroke="rgb(179,179,179)"
   stroke-linejoin="round"
   d="M 3549,8289 L 3549,8139"
   id="path24" />
 <path
   fill="none"
   stroke="rgb(179,179,179)"
   stroke-linejoin="round"
   d="M 5329,8289 L 5329,8139"
   id="path26" />
 <path
   fill="none"
   stroke="rgb(179,179,179)"
   stroke-linejoin="round"
   d="M 5329,8289 L 5329,8139"
   id="path28" />
 <path
   fill="none"
   stroke="rgb(179,179,179)"
   stroke-linejoin="round"
   d="M 7110,8289 L 7110,8139"
   id="path30" />
 <path
   fill="none"
   stroke="rgb(179,179,179)"
   stroke-linejoin="round"
   d="M 7110,8289 L 7110,8139"
   id="path32" />
 <path
   fill="none"
   stroke="rgb(179,179,179)"
   stroke-linejoin="round"
   d="M 8889,8289 L 8889,8139"
   id="path34" />
 <path
   fill="none"
   stroke="rgb(179,179,179)"
   stroke-linejoin="round"
   d="M 8889,8289 L 8889,8139"
   id="path36" />
 <path
   fill="none"
   stroke="rgb(179,179,179)"
   stroke-linejoin="round"
   d="M 10669,8289 L 10669,8139"
   id="path38" />
 <path
   fill="none"
   stroke="rgb(179,179,179)"
   stroke-linejoin="round"
   d="M 10669,8289 L 10669,8139"
   id="path40" />
 <path
   fill="none"
   stroke="rgb(179,179,179)"
   stroke-linejoin="round"
   d="M 12450,8289 L 12450,8139"
   id="path42" />
 <path
   fill="none"
   stroke="rgb(179,179,179)"
   stroke-linejoin="round"
   d="M 12450,8289 L 12450,8139"
   id="path44" />
 <path
   fill="none"
   stroke="rgb(179,179,179)"
   stroke-linejoin="round"
   d="M 1769,8139 L 12450,8139"
   id="path46" />
 <path
   fill="none"
   stroke="rgb(179,179,179)"
   stroke-linejoin="round"
   d="M 1619,8139 L 1769,8139"
   id="path48" />
 <path
   fill="none"
   stroke="rgb(179,179,179)"
   stroke-linejoin="round"
   d="M 1619,8139 L 1769,8139"
   id="path50" />
 <path
   fill="none"
   stroke="rgb(179,179,179)"
   stroke-linejoin="round"
   d="M 1619,6840 L 1769,6840"
   id="path52" />
 <path
   fill="none"
   stroke="rgb(179,179,179)"
   stroke-linejoin="round"
   d="M 1619,6840 L 1769,6840"
   id="path54" />
 <path
   fill="none"
   stroke="rgb(179,179,179)"
   stroke-linejoin="round"
   d="M 1619,5542 L 1769,5542"
   id="path56" />
 <path
   fill="none"
   stroke="rgb(179,179,179)"
   stroke-linejoin="round"
   d="M 1619,5542 L 1769,5542"
   id="path58" />
 <path
   fill="none"
   stroke="rgb(179,179,179)"
   stroke-linejoin="round"
   d="M 1619,4244 L 1769,4244"
   id="path60" />
 <path
   fill="none"
   stroke="rgb(179,179,179)"
   stroke-linejoin="round"
   d="M 1619,4244 L 1769,4244"
   id="path62" />
 <path
   fill="none"
   stroke="rgb(179,179,179)"
   stroke-linejoin="round"
   d="M 1619,2946 L 1769,2946"
   id="path64" />
 <path
   fill="none"
   stroke="rgb(179,179,179)"
   stroke-linejoin="round"
   d="M 1619,2946 L 1769,2946"
   id="path66" />
 <path
   fill="none"
   stroke="rgb(179,179,179)"
   stroke-linejoin="round"
   d="M 1619,1647 L 1769,1647"
   id="path68" />
 <path
   fill="none"
   stroke="rgb(179,179,179)"
   stroke-linejoin="round"
   d="M 1619,1647 L 1769,1647"
   id="path70" />
 <path
   fill="none"
   stroke="rgb(179,179,179)"
   stroke-linejoin="round"
   d="M 1619,349 L 1769,349"
   id="path72" />
 <path
   fill="none"
   stroke="rgb(179,179,179)"
   stroke-linejoin="round"
   d="M 1619,349 L 1769,349"
   id="path74" />
 <path
   fill="none"
   stroke="rgb(179,179,179)"
   stroke-linejoin="round"
   d="M 1769,8139 L 1769,349"
   id="path76" />
 <path
   fill="none"
   stroke="rgb(126,0,33)"
   stroke-width="80"
   stroke-linejoin="round"
   d="M 2659,8138 L 3549,8138 5329,8138 7110,8129 8889,8002 9779,7623 10135,7262 10669,6197 11025,4847"
   id="path78" />
 <path
   fill="rgb(126,0,33)"
   stroke="none"
   d="M 2534,8013 L 2534,8263 2784,8138 2534,8013 Z"
   id="path80" />
 <path
   fill="none"
   stroke="rgb(126,0,33)"
   stroke-linejoin="round"
   d="M 2534,8013 L 2534,8263 2784,8138 2534,8013 Z"
   id="path82" />
 <path
   fill="rgb(126,0,33)"
   stroke="none"
   d="M 3424,8013 L 3424,8263 3674,8138 3424,8013 Z"
   id="path84" />
 <path
   fill="none"
   stroke="rgb(126,0,33)"
   stroke-linejoin="round"
   d="M 3424,8013 L 3424,8263 3674,8138 3424,8013 Z"
   id="path86" />
 <path
   fill="rgb(126,0,33)"
   stroke="none"
   d="M 5204,8013 L 5204,8263 5454,8138 5204,8013 Z"
   id="path88" />
 <path
   fill="none"
   stroke="rgb(126,0,33)"
   stroke-linejoin="round"
   d="M 5204,8013 L 5204,8263 5454,8138 5204,8013 Z"
   id="path90" />
 <path
   fill="rgb(126,0,33)"
   stroke="none"
   d="M 6985,8004 L 6985,8254 7235,8129 6985,8004 Z"
   id="path92" />
 <path
   fill="none"
   stroke="rgb(126,0,33)"
   stroke-linejoin="round"
   d="M 6985,8004 L 6985,8254 7235,8129 6985,8004 Z"
   id="path94" />
 <path
   fill="rgb(126,0,33)"
   stroke="none"
   d="M 8764,7877 L 8764,8127 9014,8002 8764,7877 Z"
   id="path96" />
 <path
   fill="none"
   stroke="rgb(126,0,33)"
   stroke-linejoin="round"
   d="M 8764,7877 L 8764,8127 9014,8002 8764,7877 Z"
   id="path98" />
 <path
   fill="rgb(126,0,33)"
   stroke="none"
   d="M 9654,7498 L 9654,7748 9904,7623 9654,7498 Z"
   id="path100" />
 <path
   fill="none"
   stroke="rgb(126,0,33)"
   stroke-linejoin="round"
   d="M 9654,7498 L 9654,7748 9904,7623 9654,7498 Z"
   id="path102" />
 <path
   fill="rgb(126,0,33)"
   stroke="none"
   d="M 10010,7137 L 10010,7387 10260,7262 10010,7137 Z"
   id="path104" />
 <path
   fill="none"
   stroke="rgb(126,0,33)"
   stroke-linejoin="round"
   d="M 10010,7137 L 10010,7387 10260,7262 10010,7137 Z"
   id="path106" />
 <path
   fill="rgb(126,0,33)"
   stroke="none"
   d="M 10544,6072 L 10544,6322 10794,6197 10544,6072 Z"
   id="path108" />
 <path
   fill="none"
   stroke="rgb(126,0,33)"
   stroke-linejoin="round"
   d="M 10544,6072 L 10544,6322 10794,6197 10544,6072 Z"
   id="path110" />
 <path
   fill="rgb(126,0,33)"
   stroke="none"
   d="M 10900,4722 L 10900,4972 11150,4847 10900,4722 Z"
   id="path112" />
 <path
   fill="none"
   stroke="rgb(126,0,33)"
   stroke-linejoin="round"
   d="M 10900,4722 L 10900,4972 11150,4847 10900,4722 Z"
   id="path114" />
 <path
   fill="none"
   stroke="rgb(87,157,28)"
   stroke-width="80"
   stroke-linejoin="round"
   d="M 2659,8138 L 3549,8138 5329,8138 7110,8125 8889,7913 9779,7230 10135,6561 10669,4516"
   id="path116" />
 <path
   fill="rgb(87,157,28)"
   stroke="none"
   d="M 2534,8263 L 2784,8263 2659,8013 2534,8263 Z"
   id="path118" />
 <path
   fill="none"
   stroke="rgb(87,157,28)"
   stroke-linejoin="round"
   d="M 2534,8263 L 2784,8263 2659,8013 2534,8263 Z"
   id="path120" />
 <path
   fill="rgb(87,157,28)"
   stroke="none"
   d="M 3424,8263 L 3674,8263 3549,8013 3424,8263 Z"
   id="path122" />
 <path
   fill="none"
   stroke="rgb(87,157,28)"
   stroke-linejoin="round"
   d="M 3424,8263 L 3674,8263 3549,8013 3424,8263 Z"
   id="path124" />
 <path
   fill="rgb(87,157,28)"
   stroke="none"
   d="M 5204,8263 L 5454,8263 5329,8013 5204,8263 Z"
   id="path126" />
 <path
   fill="none"
   stroke="rgb(87,157,28)"
   stroke-linejoin="round"
   d="M 5204,8263 L 5454,8263 5329,8013 5204,8263 Z"
   id="path128" />
 <path
   fill="rgb(87,157,28)"
   stroke="none"
   d="M 6985,8250 L 7235,8250 7110,8000 6985,8250 Z"
   id="path130" />
 <path
   fill="none"
   stroke="rgb(87,157,28)"
   stroke-linejoin="round"
   d="M 6985,8250 L 7235,8250 7110,8000 6985,8250 Z"
   id="path132" />
 <path
   fill="rgb(87,157,28)"
   stroke="none"
   d="M 8764,8038 L 9014,8038 8889,7788 8764,8038 Z"
   id="path134" />
 <path
   fill="none"
   stroke="rgb(87,157,28)"
   stroke-linejoin="round"
   d="M 8764,8038 L 9014,8038 8889,7788 8764,8038 Z"
   id="path136" />
 <path
   fill="rgb(87,157,28)"
   stroke="none"
   d="M 9654,7355 L 9904,7355 9779,7105 9654,7355 Z"
   id="path138" />
 <path
   fill="none"
   stroke="rgb(87,157,28)"
   stroke-linejoin="round"
   d="M 9654,7355 L 9904,7355 9779,7105 9654,7355 Z"
   id="path140" />
 <path
   fill="rgb(87,157,28)"
   stroke="none"
   d="M 10010,6686 L 10260,6686 10135,6436 10010,6686 Z"
   id="path142" />
 <path
   fill="none"
   stroke="rgb(87,157,28)"
   stroke-linejoin="round"
   d="M 10010,6686 L 10260,6686 10135,6436 10010,6686 Z"
   id="path144" />
 <path
   fill="rgb(87,157,28)"
   stroke="none"
   d="M 10544,4641 L 10794,4641 10669,4392 10544,4641 Z"
   id="path146" />
 <path
   fill="none"
   stroke="rgb(87,157,28)"
   stroke-linejoin="round"
   d="M 10544,4641 L 10794,4641 10669,4392 10544,4641 Z"
   id="path148" />
 <path
   fill="none"
   stroke="rgb(255,211,32)"
   stroke-width="80"
   stroke-linejoin="round"
   d="M 2659,8138 L 3549,8138 5329,8138 7110,8135 8889,8084 9779,7932 10135,7789 10669,7359 11025,6821 11559,5243"
   id="path150" />
 <path
   fill="rgb(255,211,32)"
   stroke="none"
   d="M 2534,8013 L 2659,8263 2784,8013 2534,8013 Z"
   id="path152" />
 <path
   fill="none"
   stroke="rgb(255,211,32)"
   stroke-linejoin="round"
   d="M 2534,8013 L 2659,8263 2784,8013 2534,8013 Z"
   id="path154" />
 <path
   fill="rgb(255,211,32)"
   stroke="none"
   d="M 3424,8013 L 3549,8263 3674,8013 3424,8013 Z"
   id="path156" />
 <path
   fill="none"
   stroke="rgb(255,211,32)"
   stroke-linejoin="round"
   d="M 3424,8013 L 3549,8263 3674,8013 3424,8013 Z"
   id="path158" />
 <path
   fill="rgb(255,211,32)"
   stroke="none"
   d="M 5204,8013 L 5329,8263 5454,8013 5204,8013 Z"
   id="path160" />
 <path
   fill="none"
   stroke="rgb(255,211,32)"
   stroke-linejoin="round"
   d="M 5204,8013 L 5329,8263 5454,8013 5204,8013 Z"
   id="path162" />
 <path
   fill="rgb(255,211,32)"
   stroke="none"
   d="M 6985,8010 L 7110,8260 7235,8010 6985,8010 Z"
   id="path164" />
 <path
   fill="none"
   stroke="rgb(255,211,32)"
   stroke-linejoin="round"
   d="M 6985,8010 L 7110,8260 7235,8010 6985,8010 Z"
   id="path166" />
 <path
   fill="rgb(255,211,32)"
   stroke="none"
   d="M 8764,7959 L 8889,8209 9014,7959 8764,7959 Z"
   id="path168" />
 <path
   fill="none"
   stroke="rgb(255,211,32)"
   stroke-linejoin="round"
   d="M 8764,7959 L 8889,8209 9014,7959 8764,7959 Z"
   id="path170" />
 <path
   fill="rgb(255,211,32)"
   stroke="none"
   d="M 9654,7807 L 9779,8057 9904,7807 9654,7807 Z"
   id="path172" />
 <path
   fill="none"
   stroke="rgb(255,211,32)"
   stroke-linejoin="round"
   d="M 9654,7807 L 9779,8057 9904,7807 9654,7807 Z"
   id="path174" />
 <path
   fill="rgb(255,211,32)"
   stroke="none"
   d="M 10010,7664 L 10135,7914 10260,7664 10010,7664 Z"
   id="path176" />
 <path
   fill="none"
   stroke="rgb(255,211,32)"
   stroke-linejoin="round"
   d="M 10010,7664 L 10135,7914 10260,7664 10010,7664 Z"
   id="path178" />
 <path
   fill="rgb(255,211,32)"
   stroke="none"
   d="M 10544,7234 L 10669,7484 10794,7234 10544,7234 Z"
   id="path180" />
 <path
   fill="none"
   stroke="rgb(255,211,32)"
   stroke-linejoin="round"
   d="M 10544,7234 L 10669,7484 10794,7234 10544,7234 Z"
   id="path182" />
 <path
   fill="rgb(255,211,32)"
   stroke="none"
   d="M 10900,6696 L 11025,6946 11150,6696 10900,6696 Z"
   id="path184" />
 <path
   fill="none"
   stroke="rgb(255,211,32)"
   stroke-linejoin="round"
   d="M 10900,6696 L 11025,6946 11150,6696 10900,6696 Z"
   id="path186" />
 <path
   fill="rgb(255,211,32)"
   stroke="none"
   d="M 11434,5118 L 11559,5368 11684,5118 11434,5118 Z"
   id="path188" />
 <path
   fill="none"
   stroke="rgb(255,211,32)"
   stroke-linejoin="round"
   d="M 11434,5118 L 11559,5368 11684,5118 11434,5118 Z"
   id="path190" />
 <path
   fill="none"
   stroke="rgb(255,66,14)"
   stroke-width="80"
   stroke-linejoin="round"
   d="M 2659,8138 L 3549,8138 5329,8138 7110,8137 8889,8113 9779,8042 10135,7975 10669,7763 11025,7539 11559,6697"
   id="path192" />
 <path
   fill="rgb(255,66,14)"
   stroke="none"
   d="M 2534,8138 L 2659,8263 2784,8138 2659,8013 2534,8138 Z"
   id="path194" />
 <path
   fill="none"
   stroke="rgb(255,66,14)"
   stroke-linejoin="round"
   d="M 2534,8138 L 2659,8263 2784,8138 2659,8013 2534,8138 Z"
   id="path196" />
 <path
   fill="rgb(255,66,14)"
   stroke="none"
   d="M 3424,8138 L 3549,8263 3674,8138 3549,8013 3424,8138 Z"
   id="path198" />
 <path
   fill="none"
   stroke="rgb(255,66,14)"
   stroke-linejoin="round"
   d="M 3424,8138 L 3549,8263 3674,8138 3549,8013 3424,8138 Z"
   id="path200" />
 <path
   fill="rgb(255,66,14)"
   stroke="none"
   d="M 5204,8138 L 5329,8263 5454,8138 5329,8013 5204,8138 Z"
   id="path202" />
 <path
   fill="none"
   stroke="rgb(255,66,14)"
   stroke-linejoin="round"
   d="M 5204,8138 L 5329,8263 5454,8138 5329,8013 5204,8138 Z"
   id="path204" />
 <path
   fill="rgb(255,66,14)"
   stroke="none"
   d="M 6985,8137 L 7110,8262 7235,8137 7110,8012 6985,8137 Z"
   id="path206" />
 <path
   fill="none"
   stroke="rgb(255,66,14)"
   stroke-linejoin="round"
   d="M 6985,8137 L 7110,8262 7235,8137 7110,8012 6985,8137 Z"
   id="path208" />
 <path
   fill="rgb(255,66,14)"
   stroke="none"
   d="M 8764,8113 L 8889,8238 9014,8113 8889,7988 8764,8113 Z"
   id="path210" />
 <path
   fill="none"
   stroke="rgb(255,66,14)"
   stroke-linejoin="round"
   d="M 8764,8113 L 8889,8238 9014,8113 8889,7988 8764,8113 Z"
   id="path212" />
 <path
   fill="rgb(255,66,14)"
   stroke="none"
   d="M 9654,8042 L 9779,8167 9904,8042 9779,7917 9654,8042 Z"
   id="path214" />
 <path
   fill="none"
   stroke="rgb(255,66,14)"
   stroke-linejoin="round"
   d="M 9654,8042 L 9779,8167 9904,8042 9779,7917 9654,8042 Z"
   id="path216" />
 <path
   fill="rgb(255,66,14)"
   stroke="none"
   d="M 10010,7975 L 10135,8100 10260,7975 10135,7850 10010,7975 Z"
   id="path218" />
 <path
   fill="none"
   stroke="rgb(255,66,14)"
   stroke-linejoin="round"
   d="M 10010,7975 L 10135,8100 10260,7975 10135,7850 10010,7975 Z"
   id="path220" />
 <path
   fill="rgb(255,66,14)"
   stroke="none"
   d="M 10544,7763 L 10669,7888 10794,7763 10669,7638 10544,7763 Z"
   id="path222" />
 <path
   fill="none"
   stroke="rgb(255,66,14)"
   stroke-linejoin="round"
   d="M 10544,7763 L 10669,7888 10794,7763 10669,7638 10544,7763 Z"
   id="path224" />
 <path
   fill="rgb(255,66,14)"
   stroke="none"
   d="M 10900,7539 L 11025,7664 11150,7539 11025,7414 10900,7539 Z"
   id="path226" />
 <path
   fill="none"
   stroke="rgb(255,66,14)"
   stroke-linejoin="round"
   d="M 10900,7539 L 11025,7664 11150,7539 11025,7414 10900,7539 Z"
   id="path228" />
 <path
   fill="rgb(255,66,14)"
   stroke="none"
   d="M 11434,6697 L 11559,6822 11684,6697 11559,6572 11434,6697 Z"
   id="path230" />
 <path
   fill="none"
   stroke="rgb(255,66,14)"
   stroke-linejoin="round"
   d="M 11434,6697 L 11559,6822 11684,6697 11559,6572 11434,6697 Z"
   id="path232" />
 <path
   fill="none"
   stroke="rgb(0,69,134)"
   stroke-width="80"
   stroke-linejoin="round"
   d="M 2659,8138 L 3549,8138 5329,8136 7110,8107 8889,7673 9779,6360 10135,5178 10669,1452"
   id="path234" />
 <path
   fill="rgb(0,69,134)"
   stroke="none"
   d="M 2534,8013 L 2534,8263 2784,8263 2784,8013 2534,8013 Z"
   id="path236" />
 <path
   fill="none"
   stroke="rgb(0,69,134)"
   stroke-linejoin="round"
   d="M 2534,8013 L 2534,8263 2784,8263 2784,8013 2534,8013 Z"
   id="path238" />
 <path
   fill="rgb(0,69,134)"
   stroke="none"
   d="M 3424,8013 L 3424,8263 3674,8263 3674,8013 3424,8013 Z"
   id="path240" />
 <path
   fill="none"
   stroke="rgb(0,69,134)"
   stroke-linejoin="round"
   d="M 3424,8013 L 3424,8263 3674,8263 3674,8013 3424,8013 Z"
   id="path242" />
 <path
   fill="rgb(0,69,134)"
   stroke="none"
   d="M 5204,8011 L 5204,8261 5454,8261 5454,8011 5204,8011 Z"
   id="path244" />
 <path
   fill="none"
   stroke="rgb(0,69,134)"
   stroke-linejoin="round"
   d="M 5204,8011 L 5204,8261 5454,8261 5454,8011 5204,8011 Z"
   id="path246" />
 <path
   fill="rgb(0,69,134)"
   stroke="none"
   d="M 6985,7982 L 6985,8232 7235,8232 7235,7982 6985,7982 Z"
   id="path248" />
 <path
   fill="none"
   stroke="rgb(0,69,134)"
   stroke-linejoin="round"
   d="M 6985,7982 L 6985,8232 7235,8232 7235,7982 6985,7982 Z"
   id="path250" />
 <path
   fill="rgb(0,69,134)"
   stroke="none"
   d="M 8764,7548 L 8764,7798 9014,7798 9014,7548 8764,7548 Z"
   id="path252" />
 <path
   fill="none"
   stroke="rgb(0,69,134)"
   stroke-linejoin="round"
   d="M 8764,7548 L 8764,7798 9014,7798 9014,7548 8764,7548 Z"
   id="path254" />
 <path
   fill="rgb(0,69,134)"
   stroke="none"
   d="M 9654,6235 L 9654,6485 9904,6485 9904,6235 9654,6235 Z"
   id="path256" />
 <path
   fill="none"
   stroke="rgb(0,69,134)"
   stroke-linejoin="round"
   d="M 9654,6235 L 9654,6485 9904,6485 9904,6235 9654,6235 Z"
   id="path258" />
 <path
   fill="rgb(0,69,134)"
   stroke="none"
   d="M 10010,5053 L 10010,5303 10260,5303 10260,5053 10010,5053 Z"
   id="path260" />
 <path
   fill="none"
   stroke="rgb(0,69,134)"
   stroke-linejoin="round"
   d="M 10010,5053 L 10010,5303 10260,5303 10260,5053 10010,5053 Z"
   id="path262" />
 <path
   fill="rgb(0,69,134)"
   stroke="none"
   d="M 10544,1327 L 10544,1577 10794,1577 10794,1327 10544,1327 Z"
   id="path264" />
 <path
   fill="none"
   stroke="rgb(0,69,134)"
   stroke-linejoin="round"
   d="M 10544,1327 L 10544,1577 10794,1577 10794,1327 10544,1327 Z"
   id="path266" />
 <text
   class="TextShape"
   id="text274"><tspan
     class="TextParagraph"
     font-family="Liberation Sans, sans-serif"
     font-size="353px"
     font-weight="400"
     id="tspan272"><tspan
       class="TextPosition"
       x="1584"
       y="8707"
       id="tspan270"><tspan
         fill="rgb(0,0,0)"
         stroke="none"
         id="tspan268">10</tspan></tspan></tspan></text>

 <text
   class="TextShape"
   id="text282"><tspan
     class="TextParagraph"
     font-family="Liberation Sans, sans-serif"
     font-size="353px"
     font-weight="400"
     id="tspan280"><tspan
       class="TextPosition"
       x="3364"
       y="8707"
       id="tspan278"><tspan
         fill="rgb(0,0,0)"
         stroke="none"
         id="tspan276">20</tspan></tspan></tspan></text>

 <text
   class="TextShape"
   id="text290"><tspan
     class="TextParagraph"
     font-family="Liberation Sans, sans-serif"
     font-size="353px"
     font-weight="400"
     id="tspan288"><tspan
       class="TextPosition"
       x="5144"
       y="8707"
       id="tspan286"><tspan
         fill="rgb(0,0,0)"
         stroke="none"
         id="tspan284">30</tspan></tspan></tspan></text>

 <text
   class="TextShape"
   id="text298"><tspan
     class="TextParagraph"
     font-family="Liberation Sans, sans-serif"
     font-size="353px"
     font-weight="400"
     id="tspan296"><tspan
       class="TextPosition"
       x="6925"
       y="8707"
       id="tspan294"><tspan
         fill="rgb(0,0,0)"
         stroke="none"
         id="tspan292">40</tspan></tspan></tspan></text>

 <text
   class="TextShape"
   id="text306"><tspan
     class="TextParagraph"
     font-family="Liberation Sans, sans-serif"
     font-size="353px"
     font-weight="400"
     id="tspan304"><tspan
       class="TextPosition"
       x="8705"
       y="8707"
       id="tspan302"><tspan
         fill="rgb(0,0,0)"
         stroke="none"
         id="tspan300">50</tspan></tspan></tspan></text>

 <text
   class="TextShape"
   id="text314"><tspan
     class="TextParagraph"
     font-family="Liberation Sans, sans-serif"
     font-size="353px"
     font-weight="400"
     id="tspan312"><tspan
       class="TextPosition"
       x="10485"
       y="8707"
       id="tspan310"><tspan
         fill="rgb(0,0,0)"
         stroke="none"
         id="tspan308">60</tspan></tspan></tspan></text>

 <text
   class="TextShape"
   id="text322"><tspan
     class="TextParagraph"
     font-family="Liberation Sans, sans-serif"
     font-size="353px"
     font-weight="400"
     id="tspan320"><tspan
       class="TextPosition"
       x="12266"
       y="8707"
       id="tspan318"><tspan
         fill="rgb(0,0,0)"
         stroke="none"
         id="tspan316">70</tspan></tspan></tspan></text>

 <text
   class="TextShape"
   id="text330"><tspan
     class="TextParagraph"
     font-family="Liberation Sans, sans-serif"
     font-size="353px"
     font-weight="400"
     id="tspan328"><tspan
       class="TextPosition"
       x="1334"
       y="8260"
       id="tspan326"><tspan
         fill="rgb(0,0,0)"
         stroke="none"
         id="tspan324">0</tspan></tspan></tspan></text>

 <text
   class="TextShape"
   id="text338"><tspan
     class="TextParagraph"
     font-family="Liberation Sans, sans-serif"
     font-size="353px"
     font-weight="400"
     id="tspan336"><tspan
       class="TextPosition"
       x="672"
       y="6961"
       id="tspan334"><tspan
         fill="rgb(0,0,0)"
         stroke="none"
         id="tspan332">2,000</tspan></tspan></tspan></text>

 <text
   class="TextShape"
   id="text346"><tspan
     class="TextParagraph"
     font-family="Liberation Sans, sans-serif"
     font-size="353px"
     font-weight="400"
     id="tspan344"><tspan
       class="TextPosition"
       x="672"
       y="5663"
       id="tspan342"><tspan
         fill="rgb(0,0,0)"
         stroke="none"
         id="tspan340">4,000</tspan></tspan></tspan></text>

 <text
   class="TextShape"
   id="text354"><tspan
     class="TextParagraph"
     font-family="Liberation Sans, sans-serif"
     font-size="353px"
     font-weight="400"
     id="tspan352"><tspan
       class="TextPosition"
       x="672"
       y="4364"
       id="tspan350"><tspan
         fill="rgb(0,0,0)"
         stroke="none"
         id="tspan348">6,000</tspan></tspan></tspan></text>

 <text
   class="TextShape"
   id="text362"><tspan
     class="TextParagraph"
     font-family="Liberation Sans, sans-serif"
     font-size="353px"
     font-weight="400"
     id="tspan360"><tspan
       class="TextPosition"
       x="672"
       y="3066"
       id="tspan358"><tspan
         fill="rgb(0,0,0)"
         stroke="none"
         id="tspan356">8,000</tspan></tspan></tspan></text>

 <text
   class="TextShape"
   id="text370"><tspan
     class="TextParagraph"
     font-family="Liberation Sans, sans-serif"
     font-size="353px"
     font-weight="400"
     id="tspan368"><tspan
       class="TextPosition"
       x="487"
       y="1767"
       id="tspan366"><tspan
         fill="rgb(0,0,0)"
         stroke="none"
         id="tspan364">10,000</tspan></tspan></tspan></text>

 <text
   class="TextShape"
   id="text378"><tspan
     class="TextParagraph"
     font-family="Liberation Sans, sans-serif"
     font-size="353px"
     font-weight="400"
     id="tspan376"><tspan
       class="TextPosition"
       x="487"
       y="469"
       id="tspan374"><tspan
         fill="rgb(0,0,0)"
         stroke="none"
         id="tspan372">12,000</tspan></tspan></tspan></text>

 <path
   fill="none"
   stroke="rgb(0,69,134)"
   stroke-width="80"
   stroke-linejoin="round"
   d="M 13132,3503 L 13932,3503"
   id="path380" />
 <path
   fill="rgb(0,69,134)"
   stroke="none"
   d="M 13426,3398 L 13426,3609 13637,3609 13637,3398 13426,3398 Z"
   id="path382" />
 <path
   fill="none"
   stroke="rgb(0,69,134)"
   stroke-linejoin="round"
   d="M 13426,3398 L 13426,3609 13637,3609 13637,3398 13426,3398 Z"
   id="path384" />
 <path
   fill="none"
   stroke="rgb(255,66,14)"
   stroke-width="80"
   stroke-linejoin="round"
   d="M 13132,4001 L 13932,4001"
   id="path386" />
 <path
   fill="rgb(255,66,14)"
   stroke="none"
   d="M 13426,4001 L 13532,4107 13637,4001 13532,3896 13426,4001 Z"
   id="path388" />
 <path
   fill="none"
   stroke="rgb(255,66,14)"
   stroke-linejoin="round"
   d="M 13426,4001 L 13532,4107 13637,4001 13532,3896 13426,4001 Z"
   id="path390" />
 <path
   fill="none"
   stroke="rgb(255,211,32)"
   stroke-width="80"
   stroke-linejoin="round"
   d="M 13132,4499 L 13932,4499"
   id="path392" />
 <path
   fill="rgb(255,211,32)"
   stroke="none"
   d="M 13426,4394 L 13532,4604 13637,4394 13426,4394 Z"
   id="path394" />
 <path
   fill="none"
   stroke="rgb(255,211,32)"
   stroke-linejoin="round"
   d="M 13426,4394 L 13532,4604 13637,4394 13426,4394 Z"
   id="path396" />
 <path
   fill="none"
   stroke="rgb(87,157,28)"
   stroke-width="80"
   stroke-linejoin="round"
   d="M 13132,4996 L 13932,4996"
   id="path398" />
 <path
   fill="rgb(87,157,28)"
   stroke="none"
   d="M 13426,5102 L 13637,5102 13532,4891 13426,5102 Z"
   id="path400" />
 <path
   fill="none"
   stroke="rgb(87,157,28)"
   stroke-linejoin="round"
   d="M 13426,5102 L 13637,5102 13532,4891 13426,5102 Z"
   id="path402" />
 <path
   fill="none"
   stroke="rgb(126,0,33)"
   stroke-width="80"
   stroke-linejoin="round"
   d="M 13132,5494 L 13932,5494"
   id="path404" />
 <path
   fill="rgb(126,0,33)"
   stroke="none"
   d="M 13426,5389 L 13426,5600 13637,5494 13426,5389 Z"
   id="path406" />
 <path
   fill="none"
   stroke="rgb(126,0,33)"
   stroke-linejoin="round"
   d="M 13426,5389 L 13426,5600 13637,5494 13426,5389 Z"
   id="path408" />
 <text
   class="TextShape"
   id="text416"><tspan
     class="TextParagraph"
     font-family="Liberation Sans, sans-serif"
     font-size="353px"
     font-weight="400"
     id="tspan414"><tspan
       class="TextPosition"
       x="14032"
       y="3623"
       id="tspan412"><tspan
         fill="rgb(0,0,0)"
         stroke="none"
         id="tspan410">Brute-force</tspan></tspan></tspan></text>

 <text
   class="TextShape"
   id="text424"><tspan
     class="TextParagraph"
     font-family="Liberation Sans, sans-serif"
     font-size="353px"
     font-weight="400"
     id="tspan422"><tspan
       class="TextPosition"
       x="14032"
       y="4121"
       id="tspan420"><tspan
         fill="rgb(0,0,0)"
         stroke="none"
         id="tspan418">Lists</tspan></tspan></tspan></text>

 <text
   class="TextShape"
   id="text432"><tspan
     class="TextParagraph"
     font-family="Liberation Sans, sans-serif"
     font-size="353px"
     font-weight="400"
     id="tspan430"><tspan
       class="TextPosition"
       x="14032"
       y="4618"
       id="tspan428"><tspan
         fill="rgb(0,0,0)"
         stroke="none"
         id="tspan426">Linked List</tspan></tspan></tspan></text>

 <text
   class="TextShape"
   id="text440"><tspan
     class="TextParagraph"
     font-family="Liberation Sans, sans-serif"
     font-size="353px"
     font-weight="400"
     id="tspan438"><tspan
       class="TextPosition"
       x="14032"
       y="5116"
       id="tspan436"><tspan
         fill="rgb(0,0,0)"
         stroke="none"
         id="tspan434">Recursive</tspan></tspan></tspan></text>

 <text
   class="TextShape"
   id="text448"><tspan
     class="TextParagraph"
     font-family="Liberation Sans, sans-serif"
     font-size="353px"
     font-weight="400"
     id="tspan446"><tspan
       class="TextPosition"
       x="14032"
       y="5614"
       id="tspan444"><tspan
         fill="rgb(0,0,0)"
         stroke="none"
         id="tspan442">Stack</tspan></tspan></tspan></text>

 <text
   class="TextShape"
   id="text456"><tspan
     class="TextParagraph"
     font-family="Liberation Sans, sans-serif"
     font-size="318px"
     font-weight="400"
     id="tspan454"><tspan
       class="TextPosition"
       x="13093"
       y="8666"
       id="tspan452"><tspan
         fill="rgb(0,0,0)"
         stroke="none"
         id="tspan450">Iterations</tspan></tspan></tspan></text>

 <text
   class="TextShape"
   transform="translate(440,5527) rotate(-90) translate(-440,-5527)"
   id="text464"><tspan
     class="TextParagraph"
     font-family="Liberation Sans, sans-serif"
     font-size="318px"
     font-weight="400"
     id="tspan462"><tspan
       class="TextPosition"
       x="440"
       y="5527"
       id="tspan460"><tspan
         fill="rgb(0,0,0)"
         stroke="none"
         id="tspan458">Run Time (ms)</tspan></tspan></tspan></text>

</svg>